<?xml version="1.0" encoding="utf-8"?>
<!-- Generator: Adobe Illustrator 16.0.0, SVG Export Plug-In . SVG Version: 6.00 Build 0)  -->
<!DOCTYPE svg PUBLIC "-//W3C//DTD SVG 1.1//EN" "http://www.w3.org/Graphics/SVG/1.1/DTD/svg11.dtd">
<svg version="1.1" id="图层_1" xmlns="http://www.w3.org/2000/svg" xmlns:xlink="http://www.w3.org/1999/xlink" x="0px" y="0px"
	 width="50px" height="50px" viewBox="0 0 50 50" enable-background="new 0 0 50 50" xml:space="preserve">
<path fill="#3D588F" d="M11.918,39.913c0,1.001-0.829,1.828-1.83,1.828c-1.001,0-1.831-0.827-1.831-1.828
	c0-0.997,0.83-1.825,1.831-1.825C11.089,38.088,11.918,38.916,11.918,39.913z M30.332,27.926c-3.744-1.484-6.747-4.481-8.234-8.221
	L2.625,39.144c-0.687,0.685-1.087,1.627-1.087,2.598s0.401,1.913,1.087,2.568l3.031,3.084c0.686,0.654,1.63,1.056,2.602,1.056
	c0.973,0,1.917-0.401,2.574-1.056L30.332,27.926z M48.463,15.51c0-0.572-0.344-1-0.914-1c-0.572,0-7.207,4.167-8.15,4.709
	l-5.52-3.054V9.771l8.379-4.824c0.258-0.171,0.457-0.484,0.457-0.799c0-0.343-0.172-0.6-0.457-0.799
	c-1.744-1.171-4.461-1.799-6.549-1.799c-7.063,0-12.811,5.737-12.811,12.787c0,7.051,5.748,12.788,12.811,12.788
	c5.404,0,10.295-3.511,12.096-8.591C48.119,17.621,48.463,16.451,48.463,15.51z"/>
</svg>
