<?xml version="1.0" encoding="utf-8"?>
<!-- Generator: Adobe Illustrator 16.0.0, SVG Export Plug-In . SVG Version: 6.00 Build 0)  -->
<!DOCTYPE svg PUBLIC "-//W3C//DTD SVG 1.1//EN" "http://www.w3.org/Graphics/SVG/1.1/DTD/svg11.dtd">
<svg version="1.1" id="图层_1" xmlns="http://www.w3.org/2000/svg" xmlns:xlink="http://www.w3.org/1999/xlink" x="0px" y="0px"
	 width="50px" height="50px" viewBox="0 0 50 50" enable-background="new 0 0 50 50" xml:space="preserve">
<path fill="#3D588F" d="M12.287,13.916c0,1.799-1.445,3.243-3.245,3.243c-1.8,0-3.245-1.444-3.245-3.243
	c0-1.799,1.444-3.243,3.245-3.243C10.842,10.673,12.287,12.117,12.287,13.916z M39.336,28.508c0-0.86-0.354-1.696-0.938-2.305
	L20.272,8.114c-1.293-1.292-3.751-2.306-5.551-2.306H4.174c-1.774,0-3.245,1.47-3.245,3.243v10.539c0,1.799,1.014,4.256,2.307,5.523
	l18.126,18.139c0.583,0.584,1.419,0.938,2.281,0.938c0.862,0,1.698-0.354,2.307-0.938l12.446-12.464
	C38.981,30.206,39.336,29.371,39.336,28.508z M49.07,28.508c0-0.86-0.355-1.696-0.938-2.305L30.006,8.114
	c-1.292-1.292-3.751-2.306-5.551-2.306h-5.678c1.8,0,4.258,1.014,5.551,2.306l18.126,18.089c0.582,0.608,0.938,1.444,0.938,2.305
	c0,0.863-0.355,1.698-0.938,2.281L30.539,42.696c0.862,0.887,1.521,1.495,2.839,1.495c0.863,0,1.698-0.354,2.308-0.938
	l12.446-12.464C48.715,30.206,49.07,29.371,49.07,28.508z"/>
</svg>
