<?xml version="1.0" encoding="utf-8"?>
<!-- Generator: Adobe Illustrator 16.0.0, SVG Export Plug-In . SVG Version: 6.00 Build 0)  -->
<!DOCTYPE svg PUBLIC "-//W3C//DTD SVG 1.1//EN" "http://www.w3.org/Graphics/SVG/1.1/DTD/svg11.dtd">
<svg version="1.1" id="图层_1" xmlns="http://www.w3.org/2000/svg" xmlns:xlink="http://www.w3.org/1999/xlink" x="0px" y="0px"
	 width="50px" height="50px" viewBox="0 0 50 50" enable-background="new 0 0 50 50" xml:space="preserve">
<path fill="#3D588F" d="M24.893,34.727h-1.549v-2.653h-2.656v-1.547l3.209-3.205l4.204,4.2L24.893,34.727z M37.063,14.832
	c0.25,0.249,0.222,0.663-0.027,0.912l-9.681,9.67c-0.25,0.25-0.664,0.277-0.913,0.028s-0.222-0.663,0.027-0.912l9.682-9.671
	C36.399,14.61,36.814,14.583,37.063,14.832z M39.275,31.244c0-0.358-0.222-0.663-0.553-0.801c-0.332-0.138-0.692-0.083-0.968,0.193
	l-1.771,1.768c-0.167,0.166-0.249,0.388-0.249,0.608v3.481c0,2.432-1.992,4.421-4.426,4.421H8.296c-2.435,0-4.426-1.989-4.426-4.421
	V13.506c0-2.432,1.991-4.421,4.426-4.421H31.31c0.415,0,0.83,0.056,1.244,0.166c0.305,0.11,0.637,0.027,0.886-0.222l1.355-1.354
	c0.221-0.221,0.305-0.497,0.249-0.802c-0.056-0.276-0.249-0.524-0.498-0.636c-1.023-0.469-2.13-0.69-3.236-0.69H8.296
	c-4.397,0-7.966,3.564-7.966,7.958v22.988c0,4.394,3.568,7.958,7.966,7.958H31.31c4.398,0,7.966-3.564,7.966-7.958V31.244z
	 M36.62,10.854L18.032,29.421v7.958h7.967l18.587-18.568L36.62,10.854z M48.902,14.5c1.023-1.021,1.023-2.735,0-3.757l-4.205-4.2
	c-1.023-1.022-2.738-1.022-3.762,0l-2.545,2.542l7.967,7.958L48.902,14.5z"/>
</svg>
