<?xml version="1.0" encoding="utf-8"?>
<!-- Generator: Adobe Illustrator 16.0.0, SVG Export Plug-In . SVG Version: 6.00 Build 0)  -->
<!DOCTYPE svg PUBLIC "-//W3C//DTD SVG 1.1//EN" "http://www.w3.org/Graphics/SVG/1.1/DTD/svg11.dtd">
<svg version="1.1" id="图层_1" xmlns="http://www.w3.org/2000/svg" xmlns:xlink="http://www.w3.org/1999/xlink" x="0px" y="0px"
	 width="320px" height="2880px" viewBox="0 0 320 2880" enable-background="new 0 0 320 2880" xml:space="preserve">
<g>
	<g>
		<line fill="none" stroke="#FFFFFF" stroke-width="0.5" stroke-miterlimit="10" x1="150" y1="960" x2="149.64" y2="960.347"/>
		
			<line fill="none" stroke="#FFFFFF" stroke-width="0.5" stroke-miterlimit="10" stroke-dasharray="0.979,1.958" x1="148.231" y1="961.707" x2="104.557" y2="1003.859"/>
		<polyline fill="#FFFFFF" stroke="#FFFFFF" stroke-width="0.5" stroke-miterlimit="10" points="103.853,1004.539 103.493,1004.886 
			103.858,1005.229 		"/>
		
			<line fill="none" stroke="#FFFFFF" stroke-width="0.5" stroke-miterlimit="10" stroke-dasharray="0.9905,1.9809" x1="105.302" y1="1006.584" x2="167.414" y2="1064.873"/>
		<polyline fill="#FFFFFF" stroke="#FFFFFF" stroke-width="0.5" stroke-miterlimit="10" points="168.137,1065.55 168.501,1065.893 
			168.09,1066.177 		"/>
		
			<line fill="none" stroke="#FFFFFF" stroke-width="0.5" stroke-miterlimit="10" stroke-dasharray="0.9961,1.9921" x1="166.451" y1="1067.311" x2="83.721" y2="1124.55"/>
		<polyline fill="#FFFFFF" stroke="#FFFFFF" stroke-width="0.5" stroke-miterlimit="10" points="82.901,1125.117 82.49,1125.401 
			82.922,1125.654 		"/>
		
			<line fill="none" stroke="#FFFFFF" stroke-width="0.5" stroke-miterlimit="10" stroke-dasharray="1.0062,2.0123" x1="84.659" y1="1126.67" x2="231.711" y2="1219.152"/>
		<polyline fill="#FFFFFF" stroke="#FFFFFF" stroke-width="0.5" stroke-miterlimit="10" points="232.579,1219.661 233.012,1219.913 
			232.611,1220.215 		"/>
		
			<line fill="none" stroke="#FFFFFF" stroke-width="0.5" stroke-miterlimit="10" stroke-dasharray="1.0114,2.0228" x1="231.001" y1="1221.438" x2="172.706" y2="1274.006"/>
		<polyline fill="#FFFFFF" stroke="#FFFFFF" stroke-width="0.5" stroke-miterlimit="10" points="171.9,1274.618 171.502,1274.92 
			171.883,1275.243 		"/>
		
			<line fill="none" stroke="#FFFFFF" stroke-width="0.5" stroke-miterlimit="10" stroke-dasharray="0.9903,1.9807" x1="173.395" y1="1276.524" x2="231.874" y2="1335.463"/>
		<polyline fill="#FFFFFF" stroke="#FFFFFF" stroke-width="0.5" stroke-miterlimit="10" points="232.63,1336.104 233.012,1336.427 
			232.568,1336.662 		"/>
		
			<line fill="none" stroke="#FFFFFF" stroke-width="0.5" stroke-miterlimit="10" stroke-dasharray="1.0042,2.0085" x1="230.798" y1="1337.608" x2="51.327" y2="1439.292"/>
		<line fill="none" stroke="#FFFFFF" stroke-width="0.5" stroke-miterlimit="10" x1="50.441" y1="1439.765" x2="50" y2="1440"/>
	</g>
</g>
<polyline fill="none" stroke="#FFFFFF" stroke-width="0.5" stroke-miterlimit="10" stroke-dasharray="1,2" points="
	198.973,1443.197 290,1505.354 290,1820 50,1920 "/>
<g>
	<g>
		<line fill="none" stroke="#FFFFFF" stroke-width="0.5" stroke-miterlimit="10" x1="32" y1="1920" x2="32.41" y2="1920.287"/>
		
			<line fill="none" stroke="#FFFFFF" stroke-width="0.5" stroke-miterlimit="10" stroke-dasharray="1.0005,2.0011" x1="34.049" y1="1921.435" x2="173" y2="2024.14"/>
		<polyline fill="none" stroke="#FFFFFF" stroke-width="0.5" stroke-miterlimit="10" points="176.591,2024.713 177,2025 
			176.798,2025.457 		"/>
		
			<line fill="none" stroke="#FFFFFF" stroke-width="0.5" stroke-miterlimit="10" stroke-dasharray="1.0032,2.0064" x1="173" y1="2027.293" x2="43.36" y2="2331.925"/>
		<polyline fill="none" stroke="#FFFFFF" stroke-width="0.5" stroke-miterlimit="10" points="45.94,2332.843 45.738,2333.3 
			46.176,2333.541 		"/>
		
			<line fill="none" stroke="#FFFFFF" stroke-width="0.5" stroke-miterlimit="10" stroke-dasharray="1.0029,2.0058" x1="47.934" y1="2334.508" x2="165.684" y2="2399.275"/>
		<line fill="none" stroke="#FFFFFF" stroke-width="0.5" stroke-miterlimit="10" x1="166.563" y1="2399.759" x2="167" y2="2400"/>
	</g>
</g>
<path fill="#FFFFFF" d="M50.249,2333.299c0,1.938-1.567,3.501-3.5,3.501l0,0c-1.933,0-3.5-1.566-3.5-3.501l0,0
	c0-1.933,1.566-3.499,3.5-3.499l0,0C48.682,2329.8,50.249,2331.366,50.249,2333.299L50.249,2333.299z"/>
<path fill="#FFFFFF" d="M176.5,2024.999c0,1.936-1.566,3.501-3.501,3.501l0,0c-1.933,0-3.499-1.566-3.499-3.501l0,0
	c0-1.933,1.566-3.499,3.499-3.499l0,0C174.934,2021.5,176.5,2023.066,176.5,2024.999L176.5,2024.999z"/>
<path fill="#FFFFFF" d="M236.512,1336.442c0,1.935-1.568,3.501-3.502,3.501l0,0c-1.933,0-3.498-1.566-3.498-3.501l0,0
	c0-1.936,1.565-3.499,3.498-3.499l0,0C234.943,1332.943,236.512,1334.51,236.512,1336.442L236.512,1336.442z"/>
<path fill="#FFFFFF" d="M175.134,1274.916c0,1.935-1.567,3.501-3.501,3.501l0,0c-1.933,0-3.499-1.566-3.499-3.501l0,0
	c0-1.933,1.566-3.499,3.499-3.499l0,0C173.566,1271.417,175.134,1272.983,175.134,1274.916L175.134,1274.916z"/>
<path fill="#FFFFFF" d="M236.512,1219.92c0,1.935-1.568,3.501-3.502,3.501l0,0c-1.933,0-3.498-1.566-3.498-3.501l0,0
	c0-1.933,1.565-3.499,3.498-3.499l0,0C234.943,1216.421,236.512,1217.988,236.512,1219.92L236.512,1219.92z"/>
<path fill="#FFFFFF" d="M85.986,1125.387c0,1.938-1.567,3.501-3.501,3.501l0,0c-1.933,0-3.499-1.563-3.499-3.501l0,0
	c0-1.933,1.566-3.499,3.499-3.499l0,0C84.419,1121.888,85.986,1123.455,85.986,1125.387L85.986,1125.387z"/>
<path fill="#FFFFFF" stroke="#FFFFFF" stroke-miterlimit="10" d="M172.014,1065.891c0,1.938-1.568,3.501-3.502,3.501l0,0
	c-1.933,0-3.498-1.563-3.498-3.501l0,0c0-1.933,1.565-3.499,3.498-3.499l0,0C170.445,1062.392,172.014,1063.958,172.014,1065.891
	L172.014,1065.891z"/>
<path fill="#FFFFFF" stroke="#FFFFFF" stroke-miterlimit="10" d="M106.993,1004.885c0,1.938-1.567,3.501-3.501,3.501l0,0
	c-1.933,0-3.499-1.563-3.499-3.501l0,0c0-1.933,1.566-3.499,3.499-3.499l0,0C105.426,1001.386,106.993,1002.953,106.993,1004.885
	L106.993,1004.885z"/>
</svg>
