<?xml version="1.0" encoding="utf-8"?>
<!-- Generator: Adobe Illustrator 16.0.0, SVG Export Plug-In . SVG Version: 6.00 Build 0)  -->
<!DOCTYPE svg PUBLIC "-//W3C//DTD SVG 1.1//EN" "http://www.w3.org/Graphics/SVG/1.1/DTD/svg11.dtd">
<svg version="1.1" id="图层_1" xmlns="http://www.w3.org/2000/svg" xmlns:xlink="http://www.w3.org/1999/xlink" x="0px" y="0px"
	 width="150px" height="40px" viewBox="0 0 150 40" enable-background="new 0 0 150 40" xml:space="preserve">
<g>
	<g>
		<path fill="#FFFFFF" d="M0.833,39.444H0V0.5h0.888l16.087,23.867L33.118,0.5h0.888v38.944h-0.832V1.779l-15.81,23.59h-0.722
			L0.833,1.779V39.444z"/>
		<path fill="#FFFFFF" d="M52.256,0.556c25.463,0,25.463,38.889,0,38.889H39.164c0-12.963,0-25.926,0-38.889H52.256z M52.256,38.61
			c24.354,0,24.354-37.22,0-37.22h-12.26c0,12.073,0,25.147,0,37.22H52.256z"/>
		<path fill="#FFFFFF" d="M109.671,12.406c-0.888-2.059-2.163-3.895-3.661-5.452c-3.273-3.394-7.822-5.453-12.814-5.453
			c-4.993,0-9.542,2.06-12.814,5.453c-3.273,3.394-5.326,8.011-5.326,13.074c0,5.118,2.052,9.735,5.326,13.074
			c3.272,3.394,7.821,5.508,12.814,5.508c4.992,0,9.541-2.114,12.814-5.508c1.498-1.559,2.773-3.339,3.661-5.396h0.943
			c-0.943,2.28-2.33,4.339-3.994,6.063c-3.439,3.561-8.154,5.73-13.425,5.73s-9.985-2.17-13.425-5.73
			c-3.384-3.505-5.547-8.345-5.547-13.741c0-5.341,2.164-10.182,5.547-13.687c3.439-3.561,8.154-5.73,13.425-5.73
			s9.985,2.17,13.425,5.73c1.664,1.725,3.051,3.783,3.994,6.064H109.671z"/>
		<path fill="#FFFFFF" d="M149.057,12.406c-0.887-2.059-2.163-3.895-3.661-5.452c-3.272-3.394-7.821-5.453-12.814-5.453
			c-4.992,0-9.541,2.06-12.813,5.453c-3.273,3.394-5.326,8.011-5.326,13.074c0,5.118,2.053,9.735,5.326,13.074
			c3.272,3.394,7.821,5.508,12.813,5.508c4.993,0,9.542-2.114,12.814-5.508c1.498-1.559,2.774-3.339,3.661-5.396H150
			c-0.943,2.28-2.33,4.339-3.994,6.063c-3.439,3.561-8.154,5.73-13.425,5.73c-5.27,0-9.984-2.17-13.425-5.73
			c-3.384-3.505-5.547-8.345-5.547-13.741c0-5.341,2.163-10.182,5.547-13.687c3.44-3.561,8.155-5.73,13.425-5.73
			c5.271,0,9.985,2.17,13.425,5.73c1.664,1.725,3.051,3.783,3.994,6.064H149.057z"/>
	</g>
</g>
</svg>
