<?xml version="1.0" encoding="utf-8"?>
<!-- Generator: Adobe Illustrator 16.0.0, SVG Export Plug-In . SVG Version: 6.00 Build 0)  -->
<!DOCTYPE svg PUBLIC "-//W3C//DTD SVG 1.1//EN" "http://www.w3.org/Graphics/SVG/1.1/DTD/svg11.dtd">
<svg version="1.1" id="图层_1" xmlns="http://www.w3.org/2000/svg" xmlns:xlink="http://www.w3.org/1999/xlink" x="0px" y="0px"
	 width="212px" height="10px" viewBox="0 0 212 10" enable-background="new 0 0 212 10" xml:space="preserve">
<g>
	<path fill="#FFFFFF" d="M4.658,7.206V3.792c0-0.281,0.017-0.62,0.05-1.015H4.691c-0.058,0.249-0.109,0.422-0.153,0.52L2.839,7.206
		H2.47L0.774,3.327c-0.04-0.089-0.091-0.271-0.153-0.549h-0.02c0.022,0.24,0.033,0.589,0.033,1.045v3.383H0V2.053h0.901L2.42,5.586
		c0.116,0.271,0.192,0.481,0.23,0.633h0.023C2.788,5.901,2.87,5.686,2.916,5.573l1.545-3.52h0.858v5.153H4.658z"/>
	<path fill="#FFFFFF" d="M6.256,5.406c0-0.608,0.169-1.087,0.508-1.439C7.104,3.616,7.563,3.44,8.144,3.44
		c0.552,0,0.985,0.169,1.298,0.507C9.756,4.286,9.913,4.753,9.913,5.35c0,0.581-0.167,1.051-0.502,1.408
		C9.076,7.114,8.627,7.293,8.064,7.293c-0.55,0-0.988-0.173-1.317-0.52C6.42,6.427,6.256,5.972,6.256,5.406z M6.921,5.386
		c0,0.424,0.107,0.757,0.32,1c0.214,0.244,0.502,0.367,0.863,0.367c0.373,0,0.656-0.119,0.852-0.358
		C9.15,6.158,9.249,5.816,9.249,5.37c0-0.448-0.098-0.792-0.293-1.032C8.76,4.099,8.477,3.979,8.104,3.979
		c-0.365,0-0.654,0.125-0.866,0.375C7.026,4.605,6.921,4.95,6.921,5.386z"/>
	<path fill="#FFFFFF" d="M11.415,6.688v0.519h-0.652V1.76h0.652v2.402h0.013c0.288-0.482,0.709-0.722,1.263-0.722
		c0.461,0,0.827,0.163,1.099,0.488c0.271,0.325,0.408,0.769,0.408,1.333c0,0.621-0.152,1.115-0.457,1.483
		c-0.305,0.367-0.711,0.55-1.219,0.55c-0.479,0-0.844-0.201-1.094-0.605H11.415z M11.411,5.692c0,0.298,0.096,0.549,0.29,0.754
		c0.192,0.205,0.434,0.308,0.725,0.308c0.346,0,0.616-0.133,0.811-0.398c0.195-0.267,0.292-0.635,0.292-1.105
		c0-0.388-0.09-0.697-0.272-0.927c-0.181-0.23-0.43-0.344-0.744-0.344c-0.319,0-0.583,0.114-0.79,0.343
		c-0.207,0.228-0.311,0.519-0.311,0.872V5.692z"/>
	<path fill="#FFFFFF" d="M14.964,2.229c0-0.115,0.039-0.212,0.118-0.291c0.078-0.079,0.175-0.118,0.291-0.118
		c0.118,0,0.217,0.039,0.297,0.117c0.082,0.077,0.122,0.175,0.122,0.292c0,0.115-0.04,0.211-0.122,0.288
		c-0.081,0.077-0.18,0.114-0.297,0.114c-0.117,0-0.215-0.038-0.292-0.114C15.002,2.44,14.964,2.344,14.964,2.229z M15.041,7.206
		v-3.68h0.651v3.68H15.041z"/>
	<path fill="#FFFFFF" d="M16.784,7.206V1.76h0.652v5.446H16.784z"/>
	<path fill="#FFFFFF" d="M21.527,5.533h-2.574c0.011,0.393,0.119,0.697,0.323,0.911c0.204,0.215,0.488,0.32,0.854,0.32
		c0.412,0,0.79-0.133,1.133-0.396V6.95c-0.323,0.229-0.752,0.343-1.287,0.343c-0.532,0-0.947-0.169-1.245-0.506
		c-0.299-0.336-0.448-0.806-0.448-1.404c0-0.563,0.164-1.029,0.491-1.395c0.327-0.366,0.733-0.549,1.219-0.549
		c0.481,0,0.856,0.155,1.127,0.464c0.27,0.31,0.406,0.743,0.406,1.3V5.533z M20.875,5.01c-0.002-0.333-0.081-0.59-0.236-0.772
		c-0.155-0.182-0.373-0.273-0.654-0.273c-0.26,0-0.484,0.097-0.674,0.29c-0.19,0.192-0.309,0.445-0.357,0.755H20.875z"/>
	<path fill="#FFFFFF" d="M24.357,7.206V2.053h1.47c0.78,0,1.429,0.227,1.946,0.682c0.518,0.454,0.777,1.064,0.777,1.83
		c0,0.798-0.259,1.438-0.777,1.92c-0.518,0.481-1.184,0.722-2,0.722H24.357z M25.022,2.645v3.973h0.748
		c0.654,0,1.165-0.178,1.532-0.535s0.55-0.857,0.55-1.501c0-0.643-0.188-1.126-0.565-1.45C26.91,2.807,26.414,2.645,25.8,2.645
		H25.022z"/>
	<path fill="#FFFFFF" d="M32.388,5.533h-2.574c0.011,0.393,0.119,0.697,0.323,0.911c0.204,0.215,0.488,0.32,0.854,0.32
		c0.412,0,0.791-0.133,1.134-0.396V6.95c-0.323,0.229-0.752,0.343-1.287,0.343c-0.532,0-0.947-0.169-1.245-0.506
		c-0.298-0.336-0.447-0.806-0.447-1.404c0-0.563,0.164-1.029,0.491-1.395c0.326-0.366,0.733-0.549,1.218-0.549
		c0.481,0,0.856,0.155,1.127,0.464c0.271,0.31,0.406,0.743,0.406,1.3V5.533z M31.736,5.01c-0.002-0.333-0.081-0.59-0.236-0.772
		c-0.155-0.182-0.374-0.273-0.655-0.273c-0.259,0-0.483,0.097-0.673,0.29C29.983,4.448,29.864,4.7,29.814,5.01H31.736z"/>
	<path fill="#FFFFFF" d="M36.15,3.526l-1.457,3.68h-0.659l-1.382-3.68h0.711l0.898,2.628c0.073,0.211,0.116,0.388,0.129,0.529h0.017
		c0.022-0.186,0.061-0.358,0.116-0.515l0.941-2.643H36.15z"/>
	<path fill="#FFFFFF" d="M39.69,5.533h-2.574c0.011,0.393,0.119,0.697,0.323,0.911c0.204,0.215,0.488,0.32,0.854,0.32
		c0.412,0,0.791-0.133,1.134-0.396V6.95c-0.324,0.229-0.752,0.343-1.287,0.343c-0.532,0-0.947-0.169-1.245-0.506
		c-0.298-0.336-0.448-0.806-0.448-1.404c0-0.563,0.164-1.029,0.491-1.395c0.327-0.366,0.733-0.549,1.219-0.549
		c0.48,0,0.856,0.155,1.127,0.464c0.271,0.31,0.406,0.743,0.406,1.3V5.533z M39.038,5.01c-0.002-0.333-0.081-0.59-0.236-0.772
		c-0.155-0.182-0.374-0.273-0.655-0.273c-0.259,0-0.484,0.097-0.673,0.29c-0.19,0.192-0.309,0.445-0.358,0.755H39.038z"/>
	<path fill="#FFFFFF" d="M40.486,7.206V1.76h0.652v5.446H40.486z"/>
	<path fill="#FFFFFF" d="M41.988,5.406c0-0.608,0.169-1.087,0.509-1.439c0.339-0.352,0.799-0.527,1.379-0.527
		c0.552,0,0.985,0.169,1.299,0.507c0.313,0.338,0.47,0.806,0.47,1.402c0,0.581-0.167,1.051-0.502,1.408
		c-0.334,0.356-0.783,0.535-1.347,0.535c-0.549,0-0.988-0.173-1.316-0.52S41.988,5.972,41.988,5.406z M42.652,5.386
		c0,0.424,0.107,0.757,0.321,1c0.214,0.244,0.502,0.367,0.863,0.367c0.372,0,0.656-0.119,0.851-0.358
		c0.195-0.237,0.292-0.58,0.292-1.025c0-0.448-0.098-0.792-0.292-1.032c-0.195-0.239-0.479-0.359-0.851-0.359
		c-0.366,0-0.655,0.125-0.867,0.375C42.759,4.605,42.652,4.95,42.652,5.386z"/>
	<path fill="#FFFFFF" d="M47.146,6.688V8.9h-0.652V3.526h0.652v0.636h0.013c0.288-0.482,0.709-0.722,1.264-0.722
		c0.469,0,0.838,0.165,1.105,0.494c0.267,0.329,0.401,0.772,0.401,1.326c0,0.612-0.151,1.104-0.454,1.475
		c-0.302,0.373-0.71,0.558-1.222,0.558c-0.472,0-0.837-0.201-1.094-0.605H47.146z M47.143,5.689c0,0.3,0.097,0.552,0.289,0.757
		c0.193,0.205,0.435,0.308,0.726,0.308c0.345,0,0.616-0.133,0.811-0.398c0.195-0.267,0.292-0.635,0.292-1.105
		c0-0.397-0.091-0.708-0.272-0.933c-0.182-0.226-0.43-0.338-0.745-0.338c-0.321,0-0.585,0.114-0.792,0.343
		C47.246,4.55,47.143,4.843,47.143,5.2V5.689z"/>
	<path fill="#FFFFFF" d="M53.771,5.533h-2.574c0.011,0.393,0.119,0.697,0.322,0.911c0.204,0.215,0.489,0.32,0.854,0.32
		c0.413,0,0.79-0.133,1.134-0.396V6.95c-0.323,0.229-0.752,0.343-1.287,0.343c-0.532,0-0.947-0.169-1.245-0.506
		c-0.298-0.336-0.447-0.806-0.447-1.404c0-0.563,0.163-1.029,0.491-1.395c0.327-0.366,0.733-0.549,1.219-0.549
		c0.48,0,0.856,0.155,1.126,0.464c0.271,0.31,0.406,0.743,0.406,1.3V5.533z M53.119,5.01c-0.002-0.333-0.08-0.59-0.236-0.772
		c-0.155-0.182-0.373-0.273-0.654-0.273c-0.259,0-0.484,0.097-0.673,0.29c-0.19,0.192-0.309,0.445-0.357,0.755H53.119z"/>
	<path fill="#FFFFFF" d="M56.542,4.172c-0.108-0.078-0.258-0.117-0.449-0.117c-0.252,0-0.461,0.118-0.625,0.354
		c-0.164,0.236-0.246,0.548-0.246,0.934v1.863h-0.651v-3.68h0.651v0.749h0.014c0.186-0.542,0.507-0.812,0.964-0.812
		c0.149,0,0.263,0.017,0.342,0.05V4.172z"/>
	<path fill="#FFFFFF" d="M62.657,6.994c-0.379,0.199-0.855,0.299-1.426,0.299c-0.738,0-1.328-0.235-1.769-0.704S58.8,5.5,58.8,4.728
		c0-0.83,0.248-1.498,0.745-2.003c0.496-0.506,1.127-0.759,1.891-0.759c0.493,0,0.899,0.07,1.221,0.21v0.695
		c-0.368-0.204-0.772-0.306-1.214-0.306c-0.574,0-1.042,0.192-1.403,0.574c-0.362,0.383-0.542,0.899-0.542,1.549
		c0,0.617,0.168,1.106,0.506,1.47c0.336,0.362,0.778,0.544,1.323,0.544c0.509,0,0.953-0.116,1.33-0.346V6.994z"/>
	<path fill="#FFFFFF" d="M63.291,5.406c0-0.608,0.169-1.087,0.509-1.439c0.339-0.352,0.799-0.527,1.38-0.527
		c0.552,0,0.984,0.169,1.298,0.507c0.313,0.338,0.471,0.806,0.471,1.402c0,0.581-0.167,1.051-0.502,1.408
		c-0.334,0.356-0.783,0.535-1.347,0.535c-0.55,0-0.989-0.173-1.316-0.52C63.454,6.427,63.291,5.972,63.291,5.406z M63.956,5.386
		c0,0.424,0.107,0.757,0.321,1c0.214,0.244,0.502,0.367,0.863,0.367c0.373,0,0.656-0.119,0.851-0.358
		c0.195-0.237,0.292-0.58,0.292-1.025c0-0.448-0.098-0.792-0.292-1.032c-0.195-0.239-0.479-0.359-0.851-0.359
		c-0.366,0-0.654,0.125-0.866,0.375C64.062,4.605,63.956,4.95,63.956,5.386z"/>
	<path fill="#FFFFFF" d="M70.906,7.206h-0.648V5.113c0-0.756-0.276-1.134-0.828-1.134c-0.286,0-0.521,0.106-0.705,0.319
		c-0.184,0.213-0.276,0.482-0.276,0.809v2.099h-0.651v-3.68h0.651v0.609h0.014c0.277-0.464,0.679-0.695,1.207-0.695
		c0.404,0,0.711,0.129,0.921,0.388c0.211,0.258,0.315,0.635,0.315,1.13V7.206z"/>
	<path fill="#FFFFFF" d="M73.811,2.315c-0.122-0.064-0.254-0.097-0.396-0.097c-0.408,0-0.612,0.253-0.612,0.759v0.549h0.861v0.539
		h-0.861v3.141h-0.645V4.065H71.53V3.526h0.628V2.947c0-0.395,0.113-0.705,0.341-0.93c0.227-0.225,0.516-0.338,0.866-0.338
		c0.187,0,0.335,0.021,0.446,0.063V2.315z"/>
	<path fill="#FFFFFF" d="M77.214,5.533H74.64c0.011,0.393,0.119,0.697,0.323,0.911c0.204,0.215,0.489,0.32,0.854,0.32
		c0.413,0,0.79-0.133,1.134-0.396V6.95c-0.324,0.229-0.753,0.343-1.287,0.343c-0.532,0-0.947-0.169-1.246-0.506
		c-0.298-0.336-0.447-0.806-0.447-1.404c0-0.563,0.164-1.029,0.49-1.395c0.327-0.366,0.733-0.549,1.218-0.549
		c0.481,0,0.857,0.155,1.127,0.464c0.271,0.31,0.406,0.743,0.406,1.3V5.533z M76.562,5.01c-0.002-0.333-0.081-0.59-0.236-0.772
		c-0.155-0.182-0.374-0.273-0.655-0.273c-0.259,0-0.483,0.097-0.673,0.29C74.808,4.448,74.689,4.7,74.64,5.01H76.562z"/>
	<path fill="#FFFFFF" d="M79.985,4.172c-0.109-0.078-0.259-0.117-0.449-0.117c-0.253,0-0.461,0.118-0.625,0.354
		c-0.164,0.236-0.246,0.548-0.246,0.934v1.863h-0.651v-3.68h0.651v0.749h0.014c0.186-0.542,0.507-0.812,0.964-0.812
		c0.148,0,0.263,0.017,0.342,0.05V4.172z"/>
	<path fill="#FFFFFF" d="M83.542,5.533h-2.574c0.012,0.393,0.119,0.697,0.323,0.911c0.203,0.215,0.488,0.32,0.854,0.32
		c0.413,0,0.79-0.133,1.133-0.396V6.95c-0.323,0.229-0.752,0.343-1.287,0.343c-0.531,0-0.947-0.169-1.245-0.506
		C80.449,6.451,80.3,5.981,80.3,5.383c0-0.563,0.164-1.029,0.49-1.395c0.327-0.366,0.733-0.549,1.219-0.549
		c0.481,0,0.856,0.155,1.127,0.464c0.27,0.31,0.406,0.743,0.406,1.3V5.533z M82.89,5.01c-0.002-0.333-0.081-0.59-0.236-0.772
		c-0.156-0.182-0.374-0.273-0.655-0.273c-0.26,0-0.484,0.097-0.674,0.29C81.136,4.448,81.017,4.7,80.968,5.01H82.89z"/>
	<path fill="#FFFFFF" d="M87.45,7.206h-0.648V5.113c0-0.756-0.276-1.134-0.828-1.134c-0.286,0-0.521,0.106-0.705,0.319
		c-0.184,0.213-0.275,0.482-0.275,0.809v2.099h-0.652v-3.68h0.652v0.609h0.013c0.277-0.464,0.68-0.695,1.208-0.695
		c0.403,0,0.71,0.129,0.92,0.388c0.21,0.258,0.316,0.635,0.316,1.13V7.206z"/>
	<path fill="#FFFFFF" d="M91.009,7.04c-0.282,0.168-0.621,0.253-1.017,0.253c-0.532,0-0.96-0.171-1.284-0.513
		c-0.324-0.341-0.485-0.783-0.485-1.328c0-0.603,0.174-1.089,0.524-1.459c0.349-0.369,0.816-0.554,1.401-0.554
		c0.337,0,0.625,0.06,0.865,0.18v0.646c-0.259-0.19-0.548-0.286-0.865-0.286c-0.373,0-0.676,0.129-0.909,0.388
		c-0.234,0.258-0.351,0.602-0.351,1.033c0,0.423,0.111,0.754,0.331,0.995c0.221,0.238,0.518,0.359,0.893,0.359
		c0.317,0,0.616-0.104,0.897-0.313V7.04z"/>
	<path fill="#FFFFFF" d="M94.812,5.533h-2.573c0.011,0.393,0.118,0.697,0.322,0.911c0.204,0.215,0.489,0.32,0.854,0.32
		c0.412,0,0.791-0.133,1.134-0.396V6.95c-0.324,0.229-0.753,0.343-1.287,0.343c-0.532,0-0.947-0.169-1.245-0.506
		c-0.298-0.336-0.447-0.806-0.447-1.404c0-0.563,0.163-1.029,0.49-1.395s0.733-0.549,1.218-0.549c0.481,0,0.857,0.155,1.127,0.464
		c0.271,0.31,0.406,0.743,0.406,1.3V5.533z M94.16,5.01c-0.002-0.333-0.081-0.59-0.236-0.772c-0.155-0.182-0.374-0.273-0.655-0.273
		c-0.259,0-0.484,0.097-0.673,0.29C92.406,4.448,92.287,4.7,92.238,5.01H94.16z"/>
	<path fill="#FFFFFF" d="M101.166,6.994c-0.379,0.199-0.855,0.299-1.426,0.299c-0.738,0-1.328-0.235-1.769-0.704
		S97.309,5.5,97.309,4.728c0-0.83,0.248-1.498,0.745-2.003c0.497-0.506,1.127-0.759,1.892-0.759c0.493,0,0.899,0.07,1.221,0.21
		v0.695c-0.368-0.204-0.772-0.306-1.214-0.306c-0.574,0-1.042,0.192-1.403,0.574c-0.362,0.383-0.542,0.899-0.542,1.549
		c0,0.617,0.168,1.106,0.506,1.47c0.336,0.362,0.778,0.544,1.323,0.544c0.509,0,0.953-0.116,1.33-0.346V6.994z"/>
	<path fill="#FFFFFF" d="M105.15,7.206h-0.648V5.09c0-0.741-0.275-1.111-0.825-1.111c-0.282,0-0.516,0.108-0.702,0.324
		c-0.187,0.216-0.279,0.488-0.279,0.817v2.086h-0.651V1.76h0.651v2.372h0.013c0.281-0.461,0.682-0.692,1.2-0.692
		c0.827,0,1.24,0.5,1.24,1.5V7.206z"/>
	<path fill="#FFFFFF" d="M106.09,2.229c0-0.115,0.039-0.212,0.118-0.291c0.079-0.079,0.176-0.118,0.291-0.118
		c0.118,0,0.216,0.039,0.298,0.117c0.081,0.077,0.122,0.175,0.122,0.292c0,0.115-0.041,0.211-0.122,0.288
		c-0.082,0.077-0.18,0.114-0.298,0.114c-0.117,0-0.215-0.038-0.292-0.114S106.09,2.344,106.09,2.229z M106.166,7.206v-3.68h0.652
		v3.68H106.166z"/>
	<path fill="#FFFFFF" d="M111.022,7.206h-0.648V5.113c0-0.756-0.276-1.134-0.828-1.134c-0.286,0-0.521,0.106-0.705,0.319
		c-0.183,0.213-0.275,0.482-0.275,0.809v2.099h-0.652v-3.68h0.652v0.609h0.014c0.277-0.464,0.679-0.695,1.207-0.695
		c0.402,0,0.71,0.129,0.92,0.388c0.211,0.258,0.316,0.635,0.316,1.13V7.206z"/>
	<path fill="#FFFFFF" d="M112.129,3.783c0.365-0.229,0.787-0.343,1.266-0.343c0.887,0,1.33,0.466,1.33,1.397v2.369h-0.645V6.637
		h-0.017c-0.255,0.437-0.631,0.656-1.127,0.656c-0.358,0-0.642-0.097-0.853-0.289c-0.209-0.193-0.316-0.454-0.316-0.782
		c0-0.688,0.409-1.088,1.221-1.202l1.092-0.153c0-0.601-0.248-0.902-0.745-0.902c-0.44,0-0.844,0.148-1.206,0.446V3.783z
		 M113.219,5.476c-0.303,0.041-0.509,0.116-0.625,0.226c-0.113,0.111-0.169,0.267-0.169,0.467c0,0.174,0.062,0.318,0.186,0.429
		c0.124,0.111,0.288,0.166,0.492,0.166c0.284,0,0.517-0.1,0.701-0.299c0.184-0.199,0.276-0.45,0.276-0.752V5.359L113.219,5.476z"/>
	<path fill="#FFFFFF" d="M120.586,7.206h-3.131V6.641l1.496-1.493c0.412-0.413,0.688-0.74,0.828-0.98
		c0.139-0.24,0.209-0.49,0.209-0.747c0-0.293-0.083-0.518-0.246-0.674c-0.164-0.156-0.401-0.235-0.711-0.235
		c-0.46,0-0.897,0.196-1.313,0.586V2.435c0.406-0.313,0.878-0.469,1.416-0.469c0.463,0,0.829,0.125,1.097,0.376
		c0.269,0.251,0.402,0.588,0.402,1.011c0,0.319-0.085,0.633-0.258,0.94c-0.171,0.307-0.497,0.698-0.976,1.173l-1.174,1.148v0.013
		h2.36V7.206z"/>
	<path fill="#FFFFFF" d="M121.33,4.731c0-0.91,0.15-1.598,0.451-2.065c0.301-0.467,0.738-0.7,1.311-0.7
		c1.091,0,1.635,0.88,1.635,2.643c0,0.869-0.152,1.534-0.46,1.994c-0.306,0.46-0.737,0.69-1.292,0.69
		c-0.521,0-0.928-0.22-1.214-0.656C121.474,6.2,121.33,5.565,121.33,4.731z M121.994,4.701c0,1.368,0.347,2.053,1.041,2.053
		c0.683,0,1.024-0.694,1.024-2.086c0-1.439-0.335-2.16-1.005-2.16C122.349,2.508,121.994,3.239,121.994,4.701z"/>
	<path fill="#FFFFFF" d="M128.534,7.206h-2.953V6.644h1.153V2.731l-1.184,0.343V2.475l1.833-0.533v4.701h1.15V7.206z"/>
	<path fill="#FFFFFF" d="M132.629,5.869h-0.659v1.337h-0.632V5.869h-2.399V5.446l2.276-3.394h0.755v3.3h0.659V5.869z M131.338,5.353
		v-2.16c0-0.153,0.004-0.329,0.013-0.529h-0.013c-0.031,0.084-0.097,0.216-0.195,0.396l-1.533,2.292H131.338z"/>
	<path fill="#FFFFFF" d="M136.782,6.878c0.58-0.2,1.264-0.463,2.055-0.786V3.995h-1.915V3.503h1.915v-1.87h0.539v6.396h-0.539V6.647
		c-0.426,0.173-1.039,0.424-1.842,0.755L136.782,6.878z M140.699,1.62h0.539v2.252c0.604-0.31,1.17-0.651,1.694-1.021l0.333,0.479
		c-0.479,0.301-1.155,0.671-2.027,1.108v2.445c0,0.303,0.167,0.453,0.499,0.453h0.465c0.319,0,0.498-0.15,0.538-0.453
		c0.041-0.279,0.076-0.643,0.106-1.092c0.195,0.08,0.384,0.151,0.566,0.214c-0.045,0.421-0.094,0.779-0.147,1.078
		c-0.084,0.506-0.396,0.759-0.937,0.759h-0.719c-0.607,0-0.911-0.301-0.911-0.898V1.62z"/>
	<path fill="#FFFFFF" d="M145.307,6.065l0.364,0.399c-0.593,0.448-1.189,0.857-1.787,1.23c-0.085-0.151-0.187-0.299-0.307-0.445
		C144.186,6.9,144.762,6.505,145.307,6.065z M143.598,2.465h3.072c-0.127-0.236-0.271-0.478-0.433-0.726l0.485-0.24
		c0.178,0.266,0.351,0.541,0.52,0.825l-0.267,0.14h3.125v0.466h-6.503V2.465z M144.462,3.523h4.754v2.25h-0.518V5.506h-1.53v1.69
		c0,0.526-0.25,0.792-0.75,0.799c-0.32,0-0.61,0-0.872,0c-0.03-0.19-0.064-0.37-0.101-0.539c0.298,0.026,0.554,0.04,0.772,0.04
		c0.278,0.008,0.418-0.136,0.418-0.433V5.506h-1.655v0.299h-0.519V3.523z M148.698,3.982h-3.718v1.065h3.718V3.982z M147.886,6.512
		l0.313-0.399c0.607,0.359,1.19,0.723,1.749,1.091l-0.353,0.459C149.126,7.312,148.557,6.928,147.886,6.512z"/>
	<path fill="#FFFFFF" d="M152.521,4.958c0-0.118,0.043-0.218,0.128-0.302c0.083-0.083,0.185-0.125,0.303-0.125
		c0.116,0,0.218,0.041,0.303,0.123c0.085,0.083,0.13,0.183,0.13,0.303c0,0.115-0.043,0.215-0.127,0.299
		c-0.083,0.084-0.186,0.126-0.31,0.126c-0.122,0-0.225-0.042-0.304-0.126C152.562,5.173,152.521,5.073,152.521,4.958z"/>
	<path fill="#FFFFFF" d="M159.225,7.206h-2.953V6.644h1.155V2.731l-1.186,0.343V2.475l1.833-0.533v4.701h1.15V7.206z"/>
	<path fill="#FFFFFF" d="M159.872,4.731c0-0.91,0.15-1.598,0.452-2.065c0.3-0.467,0.738-0.7,1.31-0.7
		c1.091,0,1.636,0.88,1.636,2.643c0,0.869-0.154,1.534-0.461,1.994c-0.308,0.46-0.737,0.69-1.291,0.69
		c-0.522,0-0.929-0.22-1.216-0.656S159.872,5.565,159.872,4.731z M160.537,4.701c0,1.368,0.347,2.053,1.04,2.053
		c0.683,0,1.024-0.694,1.024-2.086c0-1.439-0.335-2.16-1.005-2.16C160.891,2.508,160.537,3.239,160.537,4.701z"/>
	<path fill="#FFFFFF" d="M165.199,5.839c-0.1,0.857-0.434,1.629-1,2.322c-0.142-0.137-0.296-0.271-0.46-0.399
		c0.43-0.466,0.719-1.02,0.864-1.663c0.102-0.475,0.154-1.131,0.154-1.97V1.826h4.44v5.19c0,0.657-0.312,0.985-0.936,0.985
		c-0.262,0-0.6-0.005-1.013-0.014c-0.021-0.159-0.054-0.346-0.1-0.559c0.409,0.026,0.729,0.039,0.965,0.039
		c0.358,0,0.539-0.175,0.539-0.524V5.839H165.199z M165.252,5.353h3.402V4.076h-3.353C165.302,4.519,165.286,4.945,165.252,5.353z
		 M165.302,2.325V3.59h3.353V2.325H165.302z"/>
	<path fill="#FFFFFF" d="M170.711,6.345c0.353,0.272,0.75,0.409,1.194,0.409c0.354,0,0.634-0.086,0.842-0.261
		c0.207-0.174,0.312-0.408,0.312-0.701c0-0.652-0.468-0.978-1.399-0.978h-0.431V4.275h0.41c0.826,0,1.241-0.307,1.241-0.918
		c0-0.566-0.317-0.849-0.949-0.849c-0.36,0-0.702,0.122-1.02,0.366V2.259c0.336-0.195,0.73-0.293,1.181-0.293
		c0.438,0,0.791,0.115,1.056,0.344c0.266,0.23,0.4,0.528,0.4,0.894c0,0.674-0.344,1.108-1.032,1.301v0.013
		c0.374,0.04,0.667,0.171,0.883,0.394c0.216,0.223,0.325,0.501,0.325,0.833c0,0.464-0.168,0.837-0.501,1.122
		s-0.777,0.426-1.331,0.426c-0.488,0-0.88-0.091-1.181-0.273V6.345z"/>
	<path fill="#FFFFFF" d="M177.74,7.206h-2.952V6.644h1.154V2.731l-1.184,0.343V2.475l1.831-0.533v4.701h1.15V7.206z"/>
	<path fill="#FFFFFF" d="M179.123,1.979h4.74v6.043H183.3V7.55h-3.61v0.473h-0.566V1.979z M179.689,2.479v1.989h3.61V2.479H179.689z
		 M179.689,4.967v2.096h3.61V4.967H179.689z"/>
	<path fill="#FFFFFF" d="M187.304,5.417h-1.959V4.914h1.959V5.417z"/>
	<path fill="#FFFFFF" d="M191.285,7.206h-2.952V6.644h1.154V2.731l-1.185,0.343V2.475l1.832-0.533v4.701h1.15V7.206z"/>
	<path fill="#FFFFFF" d="M195.21,7.206h-2.952V6.644h1.153V2.731l-1.184,0.343V2.475l1.833-0.533v4.701h1.149V7.206z"/>
	<path fill="#FFFFFF" d="M197.26,5.839c-0.1,0.857-0.433,1.629-1,2.322c-0.142-0.137-0.295-0.271-0.46-0.399
		c0.431-0.466,0.719-1.02,0.865-1.663c0.102-0.475,0.153-1.131,0.153-1.97V1.826h4.442v5.19c0,0.657-0.313,0.985-0.938,0.985
		c-0.262,0-0.6-0.005-1.011-0.014c-0.023-0.159-0.056-0.346-0.101-0.559c0.408,0.026,0.729,0.039,0.964,0.039
		c0.359,0,0.539-0.175,0.539-0.524V5.839H197.26z M197.314,5.353h3.4V4.076h-3.351C197.364,4.519,197.347,4.945,197.314,5.353z
		 M197.364,2.325V3.59h3.351V2.325H197.364z"/>
	<path fill="#FFFFFF" d="M205.877,7.206h-2.952V6.644h1.153V2.731l-1.184,0.343V2.475l1.833-0.533v4.701h1.149V7.206z"/>
	<path fill="#FFFFFF" d="M207.259,1.979H212v6.043h-0.565V7.55h-3.611v0.473h-0.564V1.979z M207.823,2.479v1.989h3.611V2.479
		H207.823z M207.823,4.967v2.096h3.611V4.967H207.823z"/>
</g>
</svg>
